# xmcd
#
# Track frame offsets:
#	150
#	7830
#	50727
#	98825
#	142605
#	187957
#	198170
#	217330
#	271570
#
# Disc length: 3920 seconds
#
# Revision: 1
# Processed by: cddbd v1.5.1PL0 Copyright (c) Steve Scherf et al.
# Submitted via: CDex 1.50Beta5
#
DISCID=710f4e09
DTITLE=Various Artist - ドラマCD みつめてナイト 第1巻 入国〜ENTRANCE〜
DYEAR=1900
DGENRE=Game
TTITLE0=序
TTITLE1=第1話 黄昏の時間
TTITLE2=第2話 少女達の時間
TTITLE3=第3話 巡り逢う時間(前)
TTITLE4=第4話 巡り逢う時間(後)
TTITLE5=予告編 真実〜TRUTH〜
TTITLE6=新山志保/戦が生んだ歌
TTITLE7=挿話 絵を描く理由
TTITLE8=小西寛子/歌を唱えば
EXTD=
EXTT0=
EXTT1=
EXTT2=
EXTT3=
EXTT4=
EXTT5=
EXTT6=
EXTT7=
EXTT8=
PLAYORDER=
